<svg xmlns="http://www.w3.org/2000/svg" viewBox="0 0 32 32" fill="none">
  <!-- Brain outline (transparent background) -->
  <path d="M10 14c0-3.3 2.7-6 6-6s6 2.7 6 6c0 1.5-.5 2.8-1.4 3.8l0.4 0.2c1.2.6 2 1.8 2 3.2 0 2-1.6 3.8-3.6 3.8H12.6C10.6 25 9 23.2 9 21.2c0-1.4.8-2.6 2-3.2l0.4-.2C10.5 16.8 10 15.5 10 14z" fill="#10b981" opacity="0.9"/>
  <!-- Circuit lines -->
  <line x1="16" y1="8" x2="16" y2="6" stroke="#10b981" stroke-width="1.5" stroke-linecap="round"/>
  <line x1="16" y1="6" x2="20" y2="6" stroke="#10b981" stroke-width="1.5" stroke-linecap="round"/>
  <line x1="10" y1="14" x2="7" y2="14" stroke="#10b981" stroke-width="1.5" stroke-linecap="round"/>
  <line x1="7" y1="14" x2="7" y2="18" stroke="#10b981" stroke-width="1.5" stroke-linecap="round"/>
  <line x1="22" y1="14" x2="25" y2="14" stroke="#10b981" stroke-width="1.5" stroke-linecap="round"/>
  <line x1="25" y1="14" x2="25" y2="18" stroke="#06b6d4" stroke-width="1.5" stroke-linecap="round"/>
  <!-- Circuit dots -->
  <circle cx="20" cy="6" r="1.5" fill="#06b6d4"/>
  <circle cx="7" cy="18" r="1.5" fill="#10b981"/>
  <circle cx="25" cy="18" r="1.5" fill="#06b6d4"/>
</svg>
